<svg width="60" height="60" viewBox="0 0 60 60" fill="none" xmlns="http://www.w3.org/2000/svg">
<path d="M51.9375 6.375H8.0625C5.26652 6.375 3 8.64152 3 11.4375V48.5625C3 51.3574 5.26652 53.625 8.0625 53.625H51.9375C54.7335 53.625 57 51.3585 57 48.5625V11.4375C57 8.64152 54.7324 6.375 51.9375 6.375ZM8.0625 51.9375C6.20203 51.9375 4.6875 50.423 4.6875 48.5625V43.1509L15.8988 31.9396C16.2284 31.61 16.7624 31.61 17.0917 31.9396L25.4269 40.2748L13.7684 51.9375H8.0625ZM55.3125 48.5625C55.3125 50.423 53.798 51.9375 51.9375 51.9375H16.152L42.9094 25.1801C43.239 24.8505 43.773 24.8505 44.1022 25.1801L55.3125 36.402V48.5625ZM55.3125 34.0184L45.2898 23.9957C44.301 23.0102 42.6995 23.0102 41.7102 23.9957L26.625 39.0809L18.198 30.7383C17.2093 29.7528 15.6077 29.7528 14.6184 30.7383L4.6875 40.7684V11.4375C4.6875 9.57703 6.20203 8.0625 8.0625 8.0625H51.9375C53.798 8.0625 55.3125 9.57703 55.3125 11.4375V34.0184ZM16.5 13.9688C13.2379 13.9688 10.5938 16.616 10.5938 19.875C10.5938 23.134 13.2379 25.7812 16.5 25.7812C19.7621 25.7812 22.4062 23.134 22.4062 19.875C22.4062 16.616 19.759 13.9688 16.5 13.9688ZM16.5 24.0938C14.1691 24.0938 12.2812 22.2059 12.2812 19.875C12.2812 17.5484 14.1744 15.6562 16.5 15.6562C18.8256 15.6562 20.7188 17.5441 20.7188 19.875C20.7188 22.2059 18.8309 24.0938 16.5 24.0938Z" fill="#353739"/>
</svg>
